<svg width="592" height="530" viewBox="0 0 592 530" fill="none" xmlns="http://www.w3.org/2000/svg">
<g opacity="0.1">
<path d="M218.342 437.886H77.5113C69.5788 437.886 62.4629 429.796 61.6185 419.817L33.786 91.066C32.9415 81.0873 38.6864 72.9973 46.619 72.9973H187.449C195.382 72.9973 202.498 81.0873 203.342 91.066L231.175 419.819C232.021 429.796 226.274 437.886 218.342 437.886Z" fill="#364475"/>
<path d="M213.379 446.211H80.8319C72.8993 446.211 65.7835 438.121 64.9391 428.142L38.4156 114.849C37.5712 104.87 43.316 96.78 51.2486 96.78H183.796C191.728 96.78 198.844 104.87 199.689 114.849L226.212 428.144C227.058 438.123 221.312 446.211 213.379 446.211Z" fill="white"/>
<path d="M208.508 219.008L217.421 324.282L122.142 446.211H80.8321C72.8995 446.211 65.7837 438.121 64.9392 428.142L62.8787 403.796L208.508 219.008Z" fill="#E0E3FC"/>
<path d="M96.4331 96.78H140.846L46.7998 213.891L44.6887 188.947L96.4331 96.78Z" fill="#E0E3FC"/>
<path d="M52.7354 284L197.936 107.747C198.862 109.927 199.477 112.326 199.689 114.847L205.086 178.605L58.8503 356.244L52.7354 284Z" fill="#E0E3FC"/>
<path d="M470.655 530L112.059 529.007C105.497 528.989 100.191 522.283 100.206 514.031L100.207 512.901L482.564 513.959L482.562 515.091C482.546 523.343 477.215 530.018 470.655 530Z" fill="#8B98F3"/>
<path d="M478.613 518.596L103.475 517.558C100.499 517.55 99.0771 512.95 101.268 510.416L155.953 447.117L426.228 447.865L480.844 511.464C483.03 514.007 481.593 518.604 478.613 518.596Z" fill="white"/>
<path d="M478.622 520.073H478.61L103.472 519.035C101.629 519.031 100.006 517.63 99.3381 515.469C98.6697 513.307 99.1148 510.898 100.471 509.327L155.494 445.636L155.954 445.638L426.688 446.387L481.639 510.377C482.991 511.952 483.431 514.363 482.759 516.521C482.088 518.678 480.464 520.073 478.622 520.073ZM156.41 448.593L102.064 511.501C101.288 512.399 101.278 513.586 101.529 514.398C101.78 515.21 102.424 516.078 103.479 516.08L478.617 517.117L478.622 518.594V517.117C479.676 517.117 480.32 516.252 480.573 515.442C480.826 514.632 480.819 513.445 480.045 512.544L425.767 449.338L156.41 448.593Z" fill="#8B98F3"/>
<path d="M326.656 503.076L233.172 502.818L236.665 487.973L323.906 488.213L326.656 503.076Z" fill="#8B98F3"/>
<path d="M352.183 503.146L331.657 503.089L328.573 488.227L347.728 488.28L352.183 503.146Z" fill="#8B98F3"/>
<path d="M377.365 503.216L356.839 503.158L352.074 488.291L371.229 488.344L377.365 503.216Z" fill="#8B98F3"/>
<path d="M402.883 503.287L382.357 503.23L375.575 488.356L394.73 488.41L402.883 503.287Z" fill="#8B98F3"/>
<path d="M427.908 503.355L407.382 503.3L400.6 488.426L419.755 488.479L427.908 503.355Z" fill="#8B98F3"/>
<path d="M173.839 502.652L133.478 502.541L143.628 487.714L181.294 487.819L173.839 502.652Z" fill="#8B98F3"/>
<path d="M199.02 502.721L178.496 502.666L185.64 487.831L204.795 487.885L199.02 502.721Z" fill="#8B98F3"/>
<path d="M229.204 502.806L208.679 502.748L213.808 487.909L232.963 487.963L229.204 502.806Z" fill="#8B98F3"/>
<path d="M243.696 483.8L224.927 483.748L228.646 471.268L246.262 471.317L243.696 483.8Z" fill="#8B98F3"/>
<path d="M219.88 483.734L201.114 483.683L206.294 471.206L223.909 471.253L219.88 483.734Z" fill="#8B98F3"/>
<path d="M193.07 483.66L146.65 483.531L155.176 471.065L198.745 471.184L193.07 483.66Z" fill="#8B98F3"/>
<path d="M265.88 483.861L247.112 483.81L249.371 471.325L266.985 471.372L265.88 483.861Z" fill="#8B98F3"/>
<path d="M258.347 466.965L241.135 466.918L243.646 456.367L259.883 456.411L258.347 466.965Z" fill="#8B98F3"/>
<path d="M233.471 466.896L216.26 466.849L220.179 456.302L236.414 456.347L233.471 466.896Z" fill="#8B98F3"/>
<path d="M208.595 466.828L191.385 466.781L196.71 456.236L212.947 456.281L208.595 466.828Z" fill="#8B98F3"/>
<path d="M183.719 466.758L166.509 466.711L173.242 456.171L189.479 456.216L183.719 466.758Z" fill="#8B98F3"/>
<path d="M280.33 467.027L263.119 466.978L264.385 456.425L280.622 456.468L280.33 467.027Z" fill="#8B98F3"/>
<path d="M302.314 467.087L285.102 467.039L285.123 456.48L301.36 456.525L302.314 467.087Z" fill="#8B98F3"/>
<path d="M324.297 467.148L307.085 467.101L305.862 456.54L322.099 456.583L324.297 467.148Z" fill="#8B98F3"/>
<path d="M346.28 467.21L329.068 467.16L326.602 456.595L342.837 456.64L346.28 467.21Z" fill="#8B98F3"/>
<path d="M368.263 467.269L351.052 467.222L347.34 456.653L363.577 456.698L368.263 467.269Z" fill="#8B98F3"/>
<path d="M390.247 467.331L373.035 467.283L368.079 456.71L384.316 456.755L390.247 467.331Z" fill="#8B98F3"/>
<path d="M414.304 467.396L397.094 467.349L392.138 456.778L408.373 456.823L414.304 467.396Z" fill="#8B98F3"/>
<path d="M289.642 483.927L270.873 483.876L271.674 471.387L289.288 471.436L289.642 483.927Z" fill="#8B98F3"/>
<path d="M313.404 483.993L294.635 483.941L293.977 471.448L311.591 471.498L313.404 483.993Z" fill="#8B98F3"/>
<path d="M337.166 484.058L318.397 484.007L316.28 471.51L333.894 471.559L337.166 484.058Z" fill="#8B98F3"/>
<path d="M360.928 484.124L342.159 484.072L338.581 471.571L356.197 471.621L360.928 484.124Z" fill="#8B98F3"/>
<path d="M384.688 484.189L365.921 484.138L360.884 471.633L378.5 471.682L384.688 484.189Z" fill="#8B98F3"/>
<path d="M408.45 484.257L389.683 484.204L383.186 471.694L400.801 471.744L408.45 484.257Z" fill="#8B98F3"/>
<path d="M414.193 471.781L433.208 503.369L452.361 503.423L431.807 471.83L414.193 471.781Z" fill="#8B98F3"/>
<path d="M425.254 446.559L158.485 445.821C153.913 445.808 150.215 441.135 150.225 435.383L150.582 231.722C150.592 225.97 154.307 221.319 158.88 221.331L425.648 222.069C430.221 222.082 433.918 226.755 433.909 232.507L433.553 436.168C433.54 441.918 429.826 446.571 425.254 446.559Z" fill="white"/>
<path d="M425.272 448.036H425.25L158.482 447.297C153.27 447.283 149.038 441.937 149.05 435.379L149.407 231.718C149.418 225.176 153.658 219.853 158.859 219.853H158.88L425.648 220.591C428.173 220.597 430.545 221.842 432.327 224.091C434.109 226.343 435.087 229.331 435.081 232.507L434.725 436.168C434.714 442.712 430.474 448.036 425.272 448.036ZM158.859 222.808C154.949 222.808 151.762 226.808 151.754 231.726L151.397 435.387C151.389 440.315 154.57 444.334 158.487 444.344L425.272 445.083C429.181 445.083 432.368 441.082 432.376 436.164L432.731 232.503C432.735 230.116 432.001 227.869 430.661 226.179C429.323 224.487 427.539 223.552 425.642 223.548L158.859 222.808Z" fill="#8B98F3"/>
<path d="M158.496 439.267C156.975 439.263 155.74 437.702 155.743 435.789L156.1 232.128C156.103 230.215 157.344 228.66 158.867 228.664L425.635 229.403C427.156 229.407 428.392 230.967 428.388 232.881L428.033 436.541C428.03 438.455 426.789 440.009 425.267 440.005L158.496 439.267Z" fill="white"/>
<path d="M425.272 441.484H425.263L158.495 440.745C157.445 440.743 156.459 440.224 155.717 439.287C154.975 438.35 154.568 437.105 154.569 435.787L154.926 232.126C154.931 229.403 156.695 227.188 158.86 227.188L425.638 227.926C427.808 227.932 429.569 230.157 429.564 232.885L429.209 436.546C429.2 439.269 427.435 441.484 425.272 441.484ZM158.862 230.141C157.986 230.141 157.276 231.033 157.272 232.13L156.917 435.791C156.915 436.322 157.08 436.822 157.38 437.202C157.68 437.581 158.078 437.788 158.5 437.79L425.268 438.529L425.272 440.005V438.529C426.144 438.529 426.856 437.636 426.858 436.539L427.213 232.878C427.215 231.779 426.506 230.883 425.632 230.879L158.862 230.141Z" fill="#8B98F3"/>
<path d="M428.376 239.578L428.389 232.491C428.392 230.578 427.156 229.015 425.635 229.011L158.867 228.273C157.346 228.269 156.104 229.823 156.1 231.736L156.087 238.823L428.376 239.578Z" fill="#8B98F3"/>
<path d="M521.444 243.856C504.88 236.227 486.721 246.889 480.885 267.669C475.048 288.448 483.747 311.478 500.312 319.106C501.12 319.477 501.932 319.805 502.746 320.093L505.39 307.536C504.84 307.343 504.291 307.13 503.745 306.878C492.565 301.729 486.693 286.184 490.632 272.16C494.57 258.135 506.826 250.939 518.008 256.086C529.189 261.236 535.06 276.78 531.121 290.805C529.76 295.654 527.402 299.686 524.44 302.674L530.973 312.88C535.361 308.453 538.853 302.479 540.871 295.294C546.706 274.514 538.009 251.484 521.444 243.856Z" fill="white"/>
<path d="M473.896 264.451C481.092 238.83 503.481 225.685 523.904 235.091C528.389 237.156 532.404 240.138 535.866 243.803L543.916 231.665C539.339 226.819 534.029 222.877 528.1 220.148C501.096 207.712 471.495 225.092 461.982 258.968C460.391 264.634 459.465 270.404 459.149 276.14L471.752 277.442C471.993 273.101 472.693 268.737 473.896 264.451Z" fill="white"/>
<path d="M559.772 303.997C563.476 290.811 563.587 277.069 560.75 264.469L548.598 268.614C550.744 278.144 550.659 288.539 547.858 298.511C544.231 311.428 536.74 321.171 527.587 326.456L532.97 340.944C545.072 333.957 554.976 321.075 559.772 303.997Z" fill="white"/>
<path d="M497.85 327.873C490.043 324.278 483.656 317.907 479.142 309.977L468.919 319.155C474.887 329.639 483.332 338.063 493.654 342.816C501.574 346.462 509.716 347.543 517.51 346.397L515.895 330.58C509.998 331.447 503.84 330.631 497.85 327.873Z" fill="white"/>
<path d="M454.783 255.649C461.254 232.606 475.828 216.217 493.08 209.667L488.969 193.077C467.732 201.142 449.792 221.317 441.825 249.682C439.373 258.414 438.041 267.316 437.725 276.146L451.453 277.147C451.709 269.974 452.793 262.743 454.783 255.649Z" fill="white"/>
<path d="M576.861 242.601L564.478 249.897C571.084 267.326 572.439 287.848 566.971 307.313C556.058 346.175 522.096 366.114 491.117 351.848C476.03 344.9 464.433 331.117 457.765 314.318L445.495 321.903C453.703 342.583 467.978 359.55 486.553 368.104C524.69 385.666 566.496 361.121 579.931 313.28C586.66 289.318 584.993 264.055 576.861 242.601Z" fill="white"/>
<path d="M557.462 235.651L568.225 225.063C559.943 211.752 548.711 201.08 535.203 194.859C527.181 191.163 518.996 189.34 510.946 189.197L510.933 206.515C517.471 206.632 524.121 208.112 530.639 211.115C541.611 216.167 550.736 224.838 557.462 235.651Z" fill="white"/>
<path d="M482.482 382.598C469.726 376.723 458.543 367.474 449.244 355.106L450.617 353.468C459.708 365.559 470.642 374.602 483.115 380.346C487.722 382.469 492.48 384.091 497.257 385.171L496.944 387.532C492.058 386.429 487.193 384.767 482.482 382.598ZM501.715 388.438L501.921 386.057C519.669 388.781 537.96 384.081 553.422 372.822L554.391 374.904C538.576 386.418 519.869 391.225 501.715 388.438ZM558.588 371.793L557.692 369.857C572.766 357.393 584.09 339.502 590.134 317.98L590.151 317.925L591.742 318.657L591.727 318.713C585.545 340.727 574.007 359.044 558.588 371.793ZM425.397 281.287C425.283 268.704 426.923 256.281 430.27 244.36C433.048 234.466 436.931 225.213 441.81 216.854L443.347 218.292C438.577 226.462 434.782 235.512 432.065 245.187C428.791 256.843 427.189 268.991 427.3 281.291L425.397 281.287ZM446.228 213.647L444.756 212.103C456.34 194.481 472.527 181.865 490.332 176.583L490.791 178.919C473.381 184.082 457.553 196.417 446.228 213.647ZM587.249 240.011C579.853 218.907 567.587 201.72 551.779 190.308L552.708 188.231C568.878 199.903 581.423 217.482 588.987 239.065L587.249 240.011Z" fill="white"/>
<path d="M529.872 276.634C528.91 265.169 520.803 256.954 511.762 258.285C502.723 259.616 496.173 269.988 497.134 281.451C497.182 282.011 497.245 282.563 497.327 283.106L502.587 281.786C502.534 281.419 502.486 281.047 502.455 280.67C501.807 272.933 506.226 265.93 512.328 265.033C518.43 264.135 523.902 269.68 524.551 277.418C525.2 285.157 520.781 292.158 514.679 293.054C512.569 293.364 510.535 292.904 508.75 291.85L506.459 298.019C509.105 299.582 512.119 300.262 515.244 299.803C524.284 298.472 530.832 288.1 529.872 276.634Z" fill="#BAC2F8"/>
<path d="M511.356 253.449C522.502 251.809 532.5 261.939 533.685 276.074C533.946 279.177 533.759 282.216 533.193 285.087L539.536 287.033C540.286 283.24 540.532 279.222 540.188 275.119C538.622 256.429 525.404 243.038 510.667 245.205C508.202 245.568 505.851 246.345 503.65 247.473L506.052 255.166C507.714 254.31 509.491 253.724 511.356 253.449Z" fill="#BAC2F8"/>
<path d="M516.341 312.884C522.078 312.04 527.199 308.962 531.222 304.415L526.905 298.234C523.862 301.673 519.99 304.001 515.65 304.641C510.031 305.467 504.703 303.302 500.651 299.141L496.51 305.615C501.868 311.115 508.911 313.977 516.341 312.884Z" fill="#BAC2F8"/>
<path d="M493.321 282.013C492.868 276.61 493.77 271.405 495.677 266.941L489.934 263.042C487.412 268.942 486.22 275.824 486.82 282.969C487.28 288.45 488.742 293.475 490.951 297.785L496.446 293.218C494.776 289.96 493.669 286.16 493.321 282.013Z" fill="#BAC2F8"/>
<path d="M510.248 240.22C520.272 238.746 529.685 243.546 536.06 252.169L541.271 245.962C533.421 235.348 521.835 229.435 509.495 231.252C505.696 231.812 502.09 233.067 498.743 234.901L501.513 243.185C504.232 241.695 507.162 240.675 510.248 240.22Z" fill="#BAC2F8"/>
<path d="M543.016 308.863L537.477 303.267C532.526 311.131 525.226 316.621 516.759 317.866C499.852 320.353 484.688 304.989 482.89 283.547C482.014 273.105 484.471 263.147 489.174 255.391L483.553 249.928C477.763 259.476 474.739 271.733 475.816 284.589C478.03 310.983 496.696 329.897 517.509 326.835C527.935 325.301 536.921 318.544 543.016 308.863Z" fill="#BAC2F8"/>
<path d="M541.155 295.892L547.544 299.785C550.584 291.879 551.971 282.848 551.189 273.499C550.723 267.945 549.526 262.726 547.738 257.971L541.313 261.927C542.766 265.79 543.737 270.031 544.117 274.541C544.753 282.132 543.626 289.47 541.155 295.892Z" fill="#BAC2F8"/>
<path d="M469.512 285.518C468.772 276.688 469.643 268.011 472.101 259.724L473.022 260.155C470.619 268.255 469.768 276.739 470.492 285.372C470.759 288.561 471.245 291.723 471.938 294.775L470.991 295.132C470.283 292.015 469.786 288.779 469.512 285.518ZM471.747 298.14L472.676 297.715C475.727 308.752 481.654 318.409 489.366 324.906L488.817 325.949C480.93 319.305 474.867 309.429 471.747 298.14ZM490.931 327.701L491.445 326.731C499.516 332.723 508.74 335.274 518.104 333.896L518.128 333.892L518.221 334.993L518.197 334.997C508.619 336.41 499.187 333.83 490.931 327.701ZM494.017 228.845C498.657 225.9 503.639 224.02 508.825 223.255C513.128 222.621 517.448 222.783 521.664 223.732L521.483 224.963C517.362 224.034 513.138 223.876 508.929 224.495C503.857 225.242 498.986 227.081 494.451 229.96L494.017 228.845ZM523.863 225.59L524.1 224.372C533.284 227.137 541.665 233.748 547.698 242.986L546.937 243.79C541.037 234.757 532.844 228.293 523.863 225.59ZM546.354 314.365C552.486 305.196 556.053 294.067 556.668 282.181L557.651 282.251C557.023 294.41 553.375 305.791 547.102 315.169L546.354 314.365Z" fill="#BAC2F8"/>
<path d="M77.7951 198.689C76.5724 184.115 66.2663 173.673 54.7733 175.363C43.282 177.054 34.9566 190.24 36.1792 204.813C36.2379 205.524 36.321 206.226 36.4221 206.915L43.1092 205.235C43.0407 204.77 42.9804 204.298 42.9413 203.818C42.1164 193.981 47.7357 185.081 55.4923 183.939C63.2488 182.796 70.2049 189.847 71.0314 199.684C71.8579 209.521 66.2369 218.421 58.4804 219.563C55.7987 219.957 53.2132 219.373 50.9423 218.032L48.0324 225.873C51.3955 227.858 55.2265 228.726 59.201 228.141C70.6923 226.45 79.0178 213.264 77.7951 198.689Z" fill="#BAC2F8"/>
<path d="M54.2598 169.215C68.4295 167.129 81.137 180.005 82.6449 197.976C82.9758 201.921 82.7395 205.783 82.0189 209.431L90.0819 211.904C91.034 207.081 91.3486 201.975 90.9101 196.758C88.9179 173 72.1154 155.975 53.3827 158.732C50.2495 159.193 47.2597 160.181 44.4639 161.613L47.5156 171.393C49.6284 170.312 51.8895 169.565 54.2598 169.215Z" fill="#DC6D7E"/>
<path d="M60.5946 244.771C67.8865 243.698 74.3959 239.783 79.5115 234.004L74.0242 226.146C70.1557 230.518 65.2325 233.477 59.7175 234.289C52.574 235.341 45.8021 232.587 40.6507 227.297L35.3867 235.526C42.1977 242.521 51.1508 246.161 60.5946 244.771Z" fill="#BAC2F8"/>
<path d="M31.3327 205.528C30.7572 198.659 31.9016 192.041 34.3274 186.369L27.0273 181.412C23.8223 188.912 22.3062 197.662 23.0692 206.743C23.6528 213.711 25.5128 220.099 28.3201 225.578L35.3055 219.773C33.1813 215.63 31.7745 210.799 31.3327 205.528Z" fill="#C3B868"/>
<path d="M52.848 152.401C65.5914 150.525 77.5554 156.63 85.6608 167.591L92.2843 159.697C82.3059 146.204 67.5786 138.69 51.8911 140.999C47.0624 141.711 42.4783 143.306 38.2251 145.638L41.7463 156.168C45.2024 154.273 48.9258 152.977 52.848 152.401Z" fill="#6F87DF"/>
<path d="M94.5063 239.66L87.4655 232.546C81.1712 242.542 71.8921 249.52 61.1279 251.105C39.6352 254.267 20.3597 234.737 18.0741 207.481C16.9607 194.207 20.0842 181.548 26.0638 171.688L18.9186 164.742C11.5582 176.88 7.71418 192.461 9.08355 208.803C11.8973 242.357 35.6266 266.399 62.0832 262.507C75.3351 260.555 86.7579 251.964 94.5063 239.66Z" fill="#EF9F40"/>
<path d="M92.1394 223.169L100.259 228.117C104.125 218.068 105.889 206.587 104.892 194.703C104.301 187.644 102.78 181.008 100.506 174.963L92.3383 179.991C94.1853 184.903 95.421 190.292 95.9019 196.026C96.7121 205.68 95.2792 215.007 92.1394 223.169Z" fill="#C3B868"/>
<path d="M1.06615 209.983C0.125517 198.759 1.23243 187.728 4.35753 177.194L5.52965 177.742C2.47464 188.038 1.39219 198.825 2.31325 209.798C2.65234 213.852 3.27181 217.874 4.15212 221.75L2.94904 222.203C2.04753 218.241 1.41501 214.127 1.06615 209.983ZM3.90759 226.027L5.08949 225.488C8.96775 239.519 16.5026 251.794 26.3066 260.052L25.6073 261.379C15.5815 252.934 7.87388 240.378 3.90759 226.027ZM28.2955 263.606L28.9475 262.374C39.2064 269.992 50.9325 273.234 62.8363 271.483L62.8672 271.479L62.9846 272.88L62.9536 272.884C50.7793 274.676 38.7891 271.399 28.2955 263.606ZM32.2161 137.94C38.1142 134.195 44.4459 131.804 51.0385 130.834C56.5094 130.028 62.0016 130.233 67.3601 131.441L67.1302 133.006C61.8924 131.824 56.5225 131.625 51.1721 132.413C44.7263 133.362 38.5332 135.7 32.7688 139.361L32.2161 137.94ZM70.1591 133.803L70.4591 132.255C82.1346 135.77 92.788 144.174 100.458 155.918L99.4914 156.939C91.9909 145.455 81.5738 137.238 70.1591 133.803ZM98.7481 246.653C106.545 234.999 111.079 220.851 111.86 205.742L113.11 205.83C112.311 221.286 107.675 235.756 99.7001 247.674L98.7481 246.653Z" fill="#BAC2F8"/>
<path d="M358.199 72.7273C356.916 57.4271 346.094 46.462 334.029 48.2379C321.964 50.0138 313.223 63.8581 314.507 79.1583C314.569 79.9048 314.656 80.641 314.763 81.3649L321.785 79.6013C321.713 79.1112 321.651 78.6169 321.609 78.1125C320.743 67.7852 326.643 58.4401 334.786 57.2425C342.928 56.0449 350.233 63.4438 351.099 73.7732C351.965 84.1005 346.065 93.4455 337.922 94.6431C335.107 95.0574 332.391 94.4422 330.007 93.0354L326.951 101.267C330.482 103.352 334.505 104.261 338.677 103.648C350.74 101.872 359.482 88.0276 358.199 72.7273Z" fill="#BAC2F8"/>
<path d="M333.488 41.7824C348.363 39.5922 361.707 53.1125 363.288 71.9789C363.635 76.1213 363.387 80.1755 362.629 84.0062L371.095 86.6044C372.096 81.5392 372.424 76.1787 371.966 70.7013C369.874 45.7566 352.234 27.8828 332.565 30.7783C329.275 31.2623 326.137 32.3 323.201 33.8052L326.406 44.073C328.625 42.9328 330.999 42.1474 333.488 41.7824Z" fill="#BAC2F8"/>
<path d="M340.141 121.107C347.796 119.98 354.632 115.872 360.002 109.804L354.24 101.554C350.18 106.144 345.01 109.252 339.22 110.103C331.719 111.207 324.61 108.317 319.201 102.762L313.674 111.402C320.824 118.745 330.224 122.566 340.141 121.107Z" fill="#BAC2F8"/>
<path d="M309.416 79.9069C308.811 72.6946 310.015 65.7468 312.559 59.7916L304.896 54.589C301.529 62.4637 299.94 71.6487 300.739 81.1845C301.352 88.4993 303.305 95.2071 306.252 100.959L313.586 94.8647C311.356 90.5111 309.881 85.4397 309.416 79.9069Z" fill="#BAC2F8"/>
<path d="M332.006 24.1279C345.385 22.1593 357.946 28.5677 366.455 40.0762L373.41 31.7893C362.934 17.6211 347.472 9.7341 331.002 12.158C325.932 12.9045 321.119 14.5799 316.653 17.0284L320.35 28.0858C323.979 26.0946 327.888 24.7329 332.006 24.1279Z" fill="#BAC2F8"/>
<path d="M375.743 115.741L368.351 108.272C361.744 118.768 352.002 126.095 340.7 127.758C318.135 131.078 297.897 110.573 295.497 81.9555C294.329 68.019 297.609 54.7284 303.885 44.3765L296.384 37.0842C288.657 49.8273 284.621 66.1877 286.059 83.3438C289.013 118.571 313.925 143.815 341.704 139.726C355.615 137.679 367.608 128.66 375.743 115.741Z" fill="#BAC2F8"/>
<path d="M373.258 98.4267L381.784 103.621C385.843 93.0703 387.694 81.0163 386.649 68.5378C386.028 61.1266 384.43 54.1604 382.043 47.8135L373.469 53.092C375.408 58.2474 376.704 63.9073 377.21 69.9282C378.059 80.0648 376.555 89.8569 373.258 98.4267Z" fill="#BAC2F8"/>
<path d="M277.64 84.5824C276.652 72.7991 277.815 61.2168 281.095 50.1594L282.324 50.7336C279.116 61.5449 277.979 72.8689 278.946 84.3897C279.303 88.6449 279.952 92.8672 280.876 96.9379L279.613 97.4136C278.669 93.2528 278.005 88.934 277.64 84.5824ZM280.624 101.429L281.864 100.863C285.935 115.593 293.846 128.482 304.141 137.152L303.407 138.547C292.879 129.677 284.787 116.495 280.624 101.429ZM306.228 140.882L306.912 139.588C317.683 147.586 329.994 150.992 342.492 149.153L342.524 149.149L342.648 150.619L342.615 150.623C329.835 152.506 317.245 149.062 306.228 140.882ZM310.346 8.94454C316.537 5.01336 323.187 2.5033 330.108 1.48411C335.853 0.63922 341.618 0.852495 347.244 2.12188L347.002 3.76448C341.502 2.52381 335.865 2.31464 330.247 3.14107C323.478 4.13771 316.979 6.59239 310.924 10.4354L310.346 8.94454ZM350.18 4.60117L350.494 2.97701C362.752 6.66827 373.938 15.4904 381.99 27.8212L380.974 28.8937C373.102 16.8356 362.165 8.20834 350.18 4.60117ZM380.195 123.084C388.38 110.848 393.14 95.9946 393.96 80.1304L395.273 80.2247C394.435 96.4519 389.565 111.643 381.194 124.159L380.195 123.084Z" fill="#BAC2F8"/>
<path d="M292.237 285.274L220.311 350.744H364.165L292.237 285.274Z" fill="white"/>
<path d="M364.23 225.412H220.288V350.744H364.23V225.412Z" fill="#B5C0ED"/>
<path d="M364.265 350.785H220.257V225.373H364.265V350.785ZM220.321 350.703H364.199V225.453H220.321V350.703Z" fill="#A0C2E0"/>
<path d="M364.165 225.412H220.311L292.237 159.941L364.165 225.412Z" fill="#B5C0ED"/>
<path d="M364.265 225.453H220.211L220.293 225.379L292.237 159.892L292.257 159.909L364.265 225.453ZM220.41 225.373H364.064L292.237 159.993L220.41 225.373Z" fill="#A0C2E0"/>
<path d="M364.167 226.31C364.165 226.31 364.165 226.31 364.167 226.31H220.312C220.003 226.31 219.73 226.06 219.634 225.691C219.54 225.322 219.644 224.916 219.895 224.688L291.821 159.218C292.071 158.99 292.408 158.99 292.656 159.218L364.556 224.663C364.75 224.823 364.879 225.1 364.879 225.414C364.879 225.908 364.56 226.31 364.167 226.31ZM222.512 224.516H361.964L292.237 161.049L222.512 224.516Z" fill="#6F87DF"/>
<path d="M339.939 174.481H241.667V351.641H339.939V174.481Z" fill="#E8EBF9"/>
<path d="M364.165 225.412L292.237 290.883L220.311 225.412H220.288V350.744H364.232V225.412H364.165Z" fill="white"/>
<path d="M221.002 349.848H363.52V227.108L292.237 291.99L221 227.147V349.848H221.002ZM364.944 351.641H219.576V224.516H220.541L292.237 289.777L363.934 224.516H364.944V351.641Z" fill="#6F87DF"/>
<path d="M358.622 234.115L358.63 230.444L355.954 232.883L358.622 234.115Z" fill="#6F87DF"/>
<path d="M358.622 234.115L355.954 232.883L351.736 236.722L351.735 237.195L358.609 240.37L358.622 234.115Z" fill="#D8E6F2"/>
<path d="M351.735 237.195L358.609 240.37L358.596 246.561L351.722 243.386L351.735 237.195Z" fill="#DC6D7E"/>
<path d="M351.722 243.386L358.596 246.561L358.581 252.881L351.707 249.707L351.722 243.386Z" fill="#6F87DF"/>
<path d="M351.707 249.707L358.582 252.881L358.569 259.072L351.694 255.898L351.707 249.707Z" fill="#D8E6F2"/>
<path d="M351.694 255.898L358.569 259.072L358.554 265.329L351.679 262.154L351.694 255.898Z" fill="#DC6D7E"/>
<path d="M351.679 262.154L358.554 265.329L358.541 271.52L351.666 268.345L351.679 262.154Z" fill="#6F87DF"/>
<path d="M351.666 268.345L358.541 271.52L358.526 277.84L351.653 274.666L351.666 268.345Z" fill="#D8E6F2"/>
<path d="M351.653 274.666L358.526 277.84L358.513 284.031L351.639 280.857L351.653 274.666Z" fill="#DC6D7E"/>
<path d="M351.639 280.857L358.513 284.031L358.5 290.286L351.625 287.111L351.639 280.857Z" fill="#6F87DF"/>
<path d="M351.626 287.111L358.5 290.286L358.485 296.542L351.611 293.368L351.626 287.111Z" fill="#D8E6F2"/>
<path d="M351.611 293.368L358.485 296.542L358.472 302.797L351.598 299.623L351.611 293.368Z" fill="#DC6D7E"/>
<path d="M351.598 299.623L358.472 302.797L358.458 308.988L351.585 305.814L351.598 299.623Z" fill="#6F87DF"/>
<path d="M351.585 305.814L358.458 308.988L358.445 315.308L351.57 312.134L351.585 305.814Z" fill="#D8E6F2"/>
<path d="M351.57 312.134L358.445 315.308L358.43 321.499L351.557 318.325L351.57 312.134Z" fill="#DC6D7E"/>
<path d="M351.557 318.325L358.43 321.499L358.417 327.756L351.542 324.582L351.557 318.325Z" fill="#6F87DF"/>
<path d="M351.542 324.582L358.417 327.756L358.404 333.947L351.529 330.773L351.542 324.582Z" fill="#D8E6F2"/>
<path d="M351.529 330.773L358.404 333.947L358.389 340.267L351.515 337.093L351.529 330.773Z" fill="#DC6D7E"/>
<path d="M351.515 337.093L358.389 340.267L358.376 346.522L351.502 343.348L351.515 337.093Z" fill="#6F87DF"/>
<path d="M232.109 236.147L227.301 231.771L225.239 230.818L225.224 237.074L232.099 240.249L232.109 236.147Z" fill="#D8E6F2"/>
<path d="M225.224 237.074L232.099 240.249L232.086 246.44L225.211 243.265L225.224 237.074Z" fill="#DC6D7E"/>
<path d="M225.211 243.265L232.086 246.44L232.071 252.76L225.197 249.586L225.211 243.265Z" fill="#6F87DF"/>
<path d="M225.196 249.586L232.071 252.76L232.058 258.951L225.183 255.777L225.196 249.586Z" fill="#D8E6F2"/>
<path d="M225.183 255.777L232.058 258.951L232.043 265.208L225.17 262.033L225.183 255.777Z" fill="#DC6D7E"/>
<path d="M225.17 262.033L232.043 265.208L232.03 271.399L225.156 268.224L225.17 262.033Z" fill="#6F87DF"/>
<path d="M225.156 268.224L232.03 271.399L232.016 277.719L225.143 274.545L225.156 268.224Z" fill="#D8E6F2"/>
<path d="M225.143 274.545L232.016 277.719L232.003 283.91L225.128 280.736L225.143 274.545Z" fill="#DC6D7E"/>
<path d="M225.128 280.736L232.003 283.91L231.99 290.165L225.115 286.99L225.128 280.736Z" fill="#6F87DF"/>
<path d="M225.115 286.99L231.99 290.165L231.975 296.421L225.1 293.247L225.115 286.99Z" fill="#D8E6F2"/>
<path d="M225.1 293.247L231.975 296.421L231.962 302.676L225.087 299.502L225.1 293.247Z" fill="#DC6D7E"/>
<path d="M225.087 299.502L231.962 302.676L231.947 308.867L225.074 305.693L225.087 299.502Z" fill="#6F87DF"/>
<path d="M225.074 305.693L231.947 308.867L231.934 315.187L225.06 312.013L225.074 305.693Z" fill="#D8E6F2"/>
<path d="M225.059 312.013L231.934 315.187L231.921 321.378L225.046 318.204L225.059 312.013Z" fill="#DC6D7E"/>
<path d="M225.046 318.204L231.921 321.378L231.906 327.635L225.032 324.461L225.046 318.204Z" fill="#6F87DF"/>
<path d="M225.032 324.461L231.906 327.635L231.893 333.826L225.019 330.652L225.032 324.461Z" fill="#D8E6F2"/>
<path d="M225.019 330.652L231.893 333.826L231.879 340.146L225.004 336.972L225.019 330.652Z" fill="#DC6D7E"/>
<path d="M358.65 346.178L356.127 337.53L351.154 337.548L353.678 346.194L358.65 346.178Z" fill="#DC6D7E"/>
<path d="M353.678 346.194L351.154 337.548L346.181 337.564L348.704 346.212L353.678 346.194Z" fill="#6F87DF"/>
<path d="M348.704 346.212L346.181 337.565L341.208 337.581L343.732 346.229L348.704 346.212Z" fill="#D8E6F2"/>
<path d="M343.732 346.229L341.209 337.581L336.287 337.599L338.811 346.247L343.732 346.229Z" fill="#DC6D7E"/>
<path d="M338.81 346.247L336.287 337.599L331.263 337.616L333.786 346.264L338.81 346.247Z" fill="#6F87DF"/>
<path d="M333.786 346.264L331.263 337.616L326.341 337.634L328.865 346.28L333.786 346.264Z" fill="#D8E6F2"/>
<path d="M328.865 346.28L326.341 337.634L321.367 337.651L323.891 346.298L328.865 346.28Z" fill="#DC6D7E"/>
<path d="M323.891 346.299L321.367 337.651L316.446 337.669L318.969 346.315L323.891 346.299Z" fill="#6F87DF"/>
<path d="M318.969 346.315L316.446 337.669L311.421 337.686L313.945 346.333L318.969 346.315Z" fill="#D8E6F2"/>
<path d="M313.945 346.333L311.421 337.686L306.5 337.702L309.023 346.35L313.945 346.333Z" fill="#DC6D7E"/>
<path d="M309.023 346.35L306.5 337.702L301.526 337.721L304.049 346.368L309.023 346.35Z" fill="#6F87DF"/>
<path d="M304.05 346.368L301.526 337.72L296.554 337.737L299.078 346.385L304.05 346.368Z" fill="#D8E6F2"/>
<path d="M299.077 346.385L296.554 337.737L291.58 337.755L294.104 346.401L299.077 346.385Z" fill="#DC6D7E"/>
<path d="M294.104 346.401L291.58 337.755L286.659 337.772L289.182 346.42L294.104 346.401Z" fill="#6F87DF"/>
<path d="M289.182 346.42L286.659 337.772L281.634 337.79L284.158 346.436L289.182 346.42Z" fill="#D8E6F2"/>
<path d="M284.158 346.436L281.634 337.79L276.713 337.807L279.236 346.454L284.158 346.436Z" fill="#DC6D7E"/>
<path d="M279.236 346.454L276.713 337.807L271.74 337.823L274.264 346.471L279.236 346.454Z" fill="#6F87DF"/>
<path d="M274.264 346.471L271.74 337.823L266.819 337.841L269.342 346.487L274.264 346.471Z" fill="#D8E6F2"/>
<path d="M269.343 346.487L266.819 337.841L261.795 337.858L264.318 346.506L269.343 346.487Z" fill="#DC6D7E"/>
<path d="M264.318 346.506L261.795 337.858L256.821 337.876L259.345 346.522L264.318 346.506Z" fill="#6F87DF"/>
<path d="M225.004 336.972L225.032 337.753L226.687 337.747L225.004 336.972Z" fill="#6F87DF"/>
<path d="M231.879 340.146L227.329 338.044L229.763 346.383L231.866 346.401L231.879 340.146Z" fill="#6F87DF"/>
<path d="M227.242 337.745L226.687 337.747L227.329 338.044L227.242 337.745Z" fill="#DC6D7E"/>
<path d="M226.686 337.747L225.032 337.753L225.32 346.342L229.763 346.383L227.329 338.044L226.686 337.747Z" fill="#DC6D7E"/>
<path d="M225.004 336.972L225.032 337.753L226.687 337.747L225.004 336.972Z" fill="#6F87DF"/>
<path d="M231.879 340.146L227.329 338.044L229.763 346.383L231.866 346.401L231.879 340.146Z" fill="#6F87DF"/>
<path d="M227.242 337.745L226.687 337.747L227.329 338.044L227.242 337.745Z" fill="#DC6D7E"/>
<path d="M226.686 337.747L225.032 337.753L225.32 346.342L229.763 346.383L227.329 338.044L226.686 337.747Z" fill="#DC6D7E"/>
<path d="M259.551 346.29L257.028 337.643L252.056 337.659L254.579 346.307L259.551 346.29Z" fill="#DC6D7E"/>
<path d="M254.579 346.307L252.056 337.659L247.082 337.677L249.606 346.325L254.579 346.307Z" fill="#6F87DF"/>
<path d="M249.606 346.325L247.082 337.677L242.11 337.694L244.633 346.342L249.606 346.325Z" fill="#D8E6F2"/>
<path d="M244.634 346.342L242.11 337.694L237.188 337.712L239.712 346.358L244.634 346.342Z" fill="#DC6D7E"/>
<path d="M239.712 346.358L237.188 337.712L232.164 337.729L234.688 346.376L239.712 346.358Z" fill="#6F87DF"/>
<path d="M234.688 346.376L232.164 337.729L227.243 337.745L229.766 346.393L234.688 346.376Z" fill="#D8E6F2"/>
<path d="M330.092 235.436H312.731V236.74H330.092V235.436Z" fill="#6F87DF"/>
<path d="M332.489 249.37H315.257V250.675H332.489V249.37Z" fill="#6F87DF"/>
<path d="M311.436 184.831H249.57V186.135H311.436V184.831Z" fill="#6F87DF"/>
<path d="M333.591 191.432H271.79V192.736H333.591V191.432Z" fill="#6F87DF"/>
<path d="M307.095 236.006H245.165V237.228H307.095V236.006Z" fill="#6F87DF"/>
<path d="M310.204 249.37H248.274V250.675H310.204V249.37Z" fill="#6F87DF"/>
<path d="M333.007 204.632H295.434V206.019H333.007V204.632Z" fill="#6F87DF"/>
<path d="M333.85 211.642H249.57V212.946H333.85V211.642Z" fill="#6F87DF"/>
<path d="M331.258 241.141H247.043V242.527H331.258V241.141Z" fill="#6F87DF"/>
<path d="M266.801 204.632H249.57V206.019H266.801V204.632Z" fill="#6F87DF"/>
<path d="M290.252 204.632H273.02V206.019H290.252V204.632Z" fill="#6F87DF"/>
<path d="M270.493 254.587H253.262V255.891H270.493V254.587Z" fill="#6F87DF"/>
<path d="M311.889 197.625H250.088V198.929H311.889V197.625Z" fill="#6F87DF"/>
<path d="M319.013 255.237H276.129V256.624H319.013V255.237Z" fill="#6F87DF"/>
<path d="M333.072 197.625H315.841V198.929H333.072V197.625Z" fill="#6F87DF"/>
<path d="M364.165 351.641H220.311C220.001 351.641 219.729 351.39 219.633 351.021C219.538 350.652 219.643 350.246 219.894 350.018L291.82 284.548C292.069 284.32 292.407 284.32 292.655 284.548L364.581 350.018C364.832 350.246 364.936 350.65 364.842 351.021C364.747 351.39 364.473 351.641 364.165 351.641ZM222.512 349.848H361.964L292.237 286.381L222.512 349.848Z" fill="#6F87DF"/>
<path d="M383.506 278.818L327.65 329.661L271.793 278.818H271.776V376.148H383.558V278.818H383.506Z" fill="white"/>
<path d="M384.111 376.843H271.222V278.123H271.972L327.648 328.802L383.325 278.123H384.109V376.843H384.111ZM272.329 375.451H383.004V280.135L327.648 330.52L272.329 280.165V375.451Z" fill="#6F87DF"/>
<path d="M327.65 325.305L271.793 376.148H383.506L327.65 325.305Z" fill="white"/>
<path d="M379.202 285.575L379.209 282.727L377.13 284.62L379.202 285.575Z" fill="#6F87DF"/>
<path d="M379.202 285.575L377.13 284.62L373.854 287.601V287.968L379.192 290.433L379.202 285.575Z" fill="#D8E6F2"/>
<path d="M373.853 287.968L379.192 290.433L379.181 295.242L373.842 292.777L373.853 287.968Z" fill="#DC6D7E"/>
<path d="M373.842 292.777L379.181 295.242L379.17 300.15L373.832 297.685L373.842 292.777Z" fill="#6F87DF"/>
<path d="M373.832 297.685L379.17 300.15L379.16 304.958L373.821 302.494L373.832 297.685Z" fill="#D8E6F2"/>
<path d="M373.821 302.494L379.16 304.958L379.148 309.817L373.811 307.352L373.821 302.494Z" fill="#DC6D7E"/>
<path d="M373.811 307.352L379.148 309.817L379.139 314.623L373.8 312.158L373.811 307.352Z" fill="#6F87DF"/>
<path d="M373.8 312.158L379.139 314.623L379.127 319.533L373.79 317.066L373.8 312.158Z" fill="#D8E6F2"/>
<path d="M373.79 317.066L379.127 319.533L379.117 324.34L373.778 321.875L373.79 317.066Z" fill="#DC6D7E"/>
<path d="M373.778 321.875L379.117 324.34L379.106 329.198L373.769 326.733L373.778 321.875Z" fill="#6F87DF"/>
<path d="M373.769 326.733L379.106 329.198L379.096 334.056L373.757 331.591L373.769 326.733Z" fill="#D8E6F2"/>
<path d="M373.757 331.591L379.096 334.056L379.085 338.914L373.746 336.449L373.757 331.591Z" fill="#DC6D7E"/>
<path d="M373.746 336.449L379.085 338.914L379.075 343.721L373.736 341.256L373.746 336.449Z" fill="#6F87DF"/>
<path d="M373.736 341.256L379.075 343.721L379.064 348.63L373.725 346.165L373.736 341.256Z" fill="#D8E6F2"/>
<path d="M373.725 346.165L379.064 348.63L379.054 353.437L373.715 350.972L373.725 346.165Z" fill="#DC6D7E"/>
<path d="M373.715 350.972L379.054 353.437L379.042 358.295L373.703 355.83L373.715 350.972Z" fill="#6F87DF"/>
<path d="M373.703 355.83L379.042 358.295L379.031 363.104L373.694 360.639L373.703 355.83Z" fill="#D8E6F2"/>
<path d="M373.694 360.639L379.031 363.104L379.021 368.011L373.682 365.546L373.694 360.639Z" fill="#DC6D7E"/>
<path d="M373.682 365.546L379.021 368.011L379.01 372.869L373.672 370.404L373.682 365.546Z" fill="#6F87DF"/>
<path d="M280.955 287.154L277.222 283.756L275.619 283.016L275.609 287.874L280.948 290.339L280.955 287.154Z" fill="#D8E6F2"/>
<path d="M275.609 287.874L280.948 290.339L280.937 295.148L275.598 292.683L275.609 287.874Z" fill="#DC6D7E"/>
<path d="M275.598 292.683L280.937 295.148L280.925 300.055L275.588 297.59L275.598 292.683Z" fill="#6F87DF"/>
<path d="M275.588 297.59L280.925 300.055L280.915 304.864L275.576 302.399L275.588 297.59Z" fill="#D8E6F2"/>
<path d="M275.576 302.399L280.915 304.864L280.904 309.722L275.567 307.257L275.576 302.399Z" fill="#DC6D7E"/>
<path d="M275.567 307.257L280.904 309.722L280.894 314.529L275.555 312.064L275.567 307.257Z" fill="#6F87DF"/>
<path d="M275.555 312.064L280.894 314.529L280.883 319.438L275.546 316.973L275.555 312.064Z" fill="#D8E6F2"/>
<path d="M275.546 316.974L280.883 319.438L280.873 324.245L275.534 321.78L275.546 316.974Z" fill="#DC6D7E"/>
<path d="M275.534 321.78L280.873 324.245L280.862 329.103L275.524 326.638L275.534 321.78Z" fill="#6F87DF"/>
<path d="M275.524 326.638L280.862 329.103L280.852 333.961L275.513 331.497L275.524 326.638Z" fill="#D8E6F2"/>
<path d="M275.513 331.497L280.852 333.961L280.84 338.82L275.503 336.355L275.513 331.497Z" fill="#DC6D7E"/>
<path d="M275.503 336.355L280.84 338.82L280.831 343.628L275.492 341.161L275.503 336.355Z" fill="#6F87DF"/>
<path d="M275.492 341.161L280.831 343.628L280.819 348.536L275.48 346.071L275.492 341.161Z" fill="#D8E6F2"/>
<path d="M275.48 346.071L280.819 348.536L280.809 353.343L275.47 350.878L275.48 346.071Z" fill="#DC6D7E"/>
<path d="M275.47 350.878L280.809 353.343L280.798 358.201L275.459 355.736L275.47 350.878Z" fill="#6F87DF"/>
<path d="M275.459 355.736L280.798 358.201L280.788 363.01L275.449 360.545L275.459 355.736Z" fill="#D8E6F2"/>
<path d="M275.449 360.545L280.788 363.01L280.777 367.917L275.438 365.452L275.449 360.545Z" fill="#DC6D7E"/>
<path d="M379.224 372.601L377.264 365.887L373.402 365.899L375.362 372.615L379.224 372.601Z" fill="#DC6D7E"/>
<path d="M375.362 372.615L373.402 365.899L369.54 365.913L371.5 372.627L375.362 372.615Z" fill="#6F87DF"/>
<path d="M371.5 372.627L369.54 365.913L365.678 365.925L367.638 372.641L371.5 372.627Z" fill="#D8E6F2"/>
<path d="M367.638 372.642L365.678 365.926L361.857 365.94L363.816 372.654L367.638 372.642Z" fill="#DC6D7E"/>
<path d="M363.816 372.654L361.857 365.94L357.954 365.952L359.914 372.668L363.816 372.654Z" fill="#6F87DF"/>
<path d="M359.914 372.668L357.954 365.952L354.133 365.967L356.092 372.683L359.914 372.668Z" fill="#D8E6F2"/>
<path d="M356.092 372.683L354.133 365.967L350.271 365.979L352.231 372.695L356.092 372.683Z" fill="#DC6D7E"/>
<path d="M352.231 372.695L350.271 365.979L346.448 365.993L348.408 372.709L352.231 372.695Z" fill="#6F87DF"/>
<path d="M348.408 372.709L346.448 365.993L342.547 366.008L344.507 372.722L348.408 372.709Z" fill="#D8E6F2"/>
<path d="M344.507 372.722L342.547 366.008L338.724 366.02L340.686 372.736L344.507 372.722Z" fill="#DC6D7E"/>
<path d="M340.685 372.736L338.724 366.02L334.864 366.034L336.823 372.748L340.685 372.736Z" fill="#6F87DF"/>
<path d="M336.824 372.748L334.864 366.034L331.002 366.047L332.962 372.763L336.824 372.748Z" fill="#D8E6F2"/>
<path d="M332.962 372.763L331.002 366.047L327.14 366.061L329.1 372.775L332.962 372.763Z" fill="#DC6D7E"/>
<path d="M329.1 372.775L327.14 366.061L323.317 366.073L325.277 372.789L329.1 372.775Z" fill="#6F87DF"/>
<path d="M325.277 372.789L323.317 366.073L319.416 366.088L321.376 372.802L325.277 372.789Z" fill="#D8E6F2"/>
<path d="M321.376 372.802L319.416 366.088L315.593 366.1L317.553 372.816L321.376 372.802Z" fill="#DC6D7E"/>
<path d="M317.553 372.816L315.593 366.1L311.731 366.114L313.691 372.828L317.553 372.816Z" fill="#6F87DF"/>
<path d="M313.691 372.828L311.731 366.114L307.91 366.127L309.87 372.843L313.691 372.828Z" fill="#D8E6F2"/>
<path d="M309.87 372.843L307.91 366.127L304.008 366.141L305.969 372.857L309.87 372.843Z" fill="#DC6D7E"/>
<path d="M305.969 372.857L304.007 366.141L300.146 366.155L302.107 372.869L305.969 372.857Z" fill="#6F87DF"/>
<path d="M275.438 365.452L275.459 366.059L276.744 366.055L275.438 365.452Z" fill="#6F87DF"/>
<path d="M280.777 367.917L277.244 366.287L279.134 372.761L280.766 372.775L280.777 367.917Z" fill="#6F87DF"/>
<path d="M277.176 366.053L276.744 366.055L277.244 366.286L277.176 366.053Z" fill="#DC6D7E"/>
<path d="M276.744 366.055L275.459 366.059L275.684 372.728L279.133 372.761L277.244 366.287L276.744 366.055Z" fill="#DC6D7E"/>
<path d="M275.438 365.452L275.459 366.059L276.744 366.055L275.438 365.452Z" fill="#6F87DF"/>
<path d="M280.777 367.917L277.244 366.287L279.134 372.761L280.766 372.775L280.777 367.917Z" fill="#6F87DF"/>
<path d="M277.176 366.053L276.744 366.055L277.244 366.286L277.176 366.053Z" fill="#DC6D7E"/>
<path d="M276.744 366.055L275.459 366.059L275.684 372.728L279.133 372.761L277.244 366.287L276.744 366.055Z" fill="#DC6D7E"/>
<path d="M302.266 372.689L300.307 365.973L296.445 365.987L298.404 372.701L302.266 372.689Z" fill="#DC6D7E"/>
<path d="M298.404 372.701L296.445 365.987L292.583 365.999L294.542 372.715L298.404 372.701Z" fill="#6F87DF"/>
<path d="M294.542 372.715L292.583 365.999L288.721 366.014L290.682 372.728L294.542 372.715Z" fill="#D8E6F2"/>
<path d="M290.682 372.728L288.721 366.014L284.9 366.026L286.859 372.742L290.682 372.728Z" fill="#DC6D7E"/>
<path d="M286.859 372.742L284.9 366.026L280.999 366.04L282.958 372.756L286.859 372.742Z" fill="#6F87DF"/>
<path d="M282.958 372.756L280.999 366.04L277.176 366.053L279.135 372.769L282.958 372.756Z" fill="#D8E6F2"/>
<path d="M383.506 376.844H271.793C271.553 376.844 271.34 376.649 271.266 376.362C271.193 376.075 271.274 375.761 271.468 375.582L327.324 324.74C327.518 324.563 327.779 324.563 327.973 324.74L383.829 375.582C384.023 375.759 384.104 376.075 384.031 376.362C383.957 376.649 383.745 376.844 383.506 376.844ZM273.501 375.451H381.796L327.648 326.165L273.501 375.451Z" fill="#6F87DF"/>
<path d="M317.364 326.261L271.775 278.751H383.556L336.988 326.376C331.263 332.231 323.046 332.183 317.364 326.261Z" fill="#E8EBF9"/>
<path d="M327.231 331.388C327.207 331.388 327.182 331.388 327.158 331.388C323.469 331.365 319.874 329.725 317.034 326.764L271.445 279.253C271.277 279.079 271.214 278.787 271.289 278.529C271.362 278.271 271.558 278.098 271.776 278.098H383.558C383.778 278.098 383.974 278.273 384.047 278.531C384.12 278.792 384.055 279.081 383.886 279.255L337.317 326.88C334.472 329.788 330.894 331.388 327.231 331.388ZM273.214 279.403L317.696 325.761C320.453 328.634 323.843 330.071 327.234 330.071C330.579 330.071 333.925 328.673 336.663 325.871L382.1 279.405H273.214V279.403Z" fill="#6F87DF"/>
<path d="M212.669 291.19L197.397 384.623L304.941 412.439L320.212 319.006L212.669 291.19Z" fill="white"/>
<path d="M304.941 413.155C304.902 413.155 304.863 413.151 304.826 413.141L197.281 385.325C196.97 385.245 196.769 384.862 196.833 384.47L212.105 291.036C212.136 290.848 212.224 290.684 212.352 290.577C212.48 290.47 212.636 290.433 212.786 290.472L320.331 318.288C320.642 318.368 320.843 318.751 320.779 319.143L305.507 412.575C305.476 412.764 305.388 412.928 305.259 413.034C305.163 413.114 305.054 413.155 304.941 413.155ZM198.078 384.052L304.493 411.574L319.532 319.562L213.117 292.039L198.078 384.052Z" fill="#6F87DF"/>
<path d="M254.71 373.632L212.668 291.182L320.213 318.998L254.71 373.632Z" fill="#B5C0ED"/>
<path d="M256.26 364.146L212.668 291.182L320.213 318.998L256.26 364.146Z" fill="white"/>
<path d="M256.26 364.869C256.084 364.869 255.911 364.769 255.799 364.58L212.207 291.618C212.064 291.378 212.052 291.05 212.181 290.796C212.31 290.542 212.55 290.412 212.784 290.474L320.329 318.29C320.564 318.351 320.745 318.589 320.782 318.888C320.82 319.188 320.704 319.483 320.495 319.631L256.542 364.779C256.453 364.838 256.356 364.869 256.26 364.869ZM214.043 292.279L256.417 363.204L318.583 319.317L214.043 292.279Z" fill="#6F87DF"/>
<path d="M299.959 392.611C305.451 385.702 305.451 374.5 299.958 367.591C294.466 360.683 285.562 360.683 280.07 367.591C274.577 374.5 274.577 385.702 280.07 392.611C285.562 399.519 294.466 399.519 299.959 392.611Z" fill="#DC6D7E"/>
<path d="M289.112 399.21C288.393 399.155 287.671 399.034 286.962 398.852L287.425 396.011C288.028 396.167 288.643 396.27 289.252 396.317L289.112 399.21ZM291.283 399.18L291.093 396.29C291.702 396.227 292.314 396.106 292.91 395.933L293.427 398.757C292.725 398.964 292.002 399.106 291.283 399.18ZM284.872 398.117C284.192 397.812 283.524 397.441 282.885 397.014L283.964 394.453C284.505 394.814 285.071 395.128 285.648 395.388L284.872 398.117ZM295.502 397.958L294.669 395.255C295.24 394.976 295.801 394.644 296.335 394.266L297.464 396.793C296.834 397.238 296.174 397.629 295.502 397.958ZM281.044 395.564C280.462 395.029 279.905 394.434 279.388 393.799L280.999 391.727C281.437 392.267 281.91 392.771 282.404 393.225L281.044 395.564ZM299.276 395.292L297.874 392.991C298.362 392.521 298.825 392.004 299.254 391.453L300.9 393.481C300.396 394.129 299.85 394.738 299.276 395.292ZM277.947 391.754C277.508 391.034 277.106 390.267 276.752 389.476L278.76 388.055C279.06 388.727 279.403 389.377 279.776 389.991L277.947 391.754ZM302.305 391.397L300.445 389.685C300.807 389.062 301.136 388.401 301.423 387.722L303.459 389.08C303.12 389.884 302.732 390.663 302.305 391.397ZM275.826 387.009C275.565 386.162 275.35 385.284 275.187 384.4L277.432 383.748C277.569 384.497 277.751 385.243 277.973 385.961L275.826 387.009ZM304.337 386.582L302.168 385.604C302.374 384.882 302.542 384.13 302.666 383.371L302.67 383.34L304.928 383.918L304.92 383.966C304.777 384.847 304.579 385.731 304.337 386.582ZM274.851 381.702C274.817 381.179 274.799 380.646 274.799 380.119C274.799 379.739 274.809 379.352 274.827 378.97L277.127 379.144C277.112 379.468 277.104 379.797 277.104 380.119C277.104 380.566 277.119 381.017 277.148 381.46L274.851 381.702ZM305.21 381.214L302.91 381.041C302.925 380.723 302.933 380.401 302.933 380.084C302.933 379.632 302.918 379.175 302.887 378.726L305.183 378.482C305.218 379.013 305.236 379.55 305.236 380.084C305.236 380.459 305.228 380.838 305.21 381.214ZM277.366 376.854L275.112 376.253C275.259 375.361 275.453 374.483 275.694 373.636L277.864 374.612C277.66 375.33 277.494 376.077 277.371 376.829L277.366 376.854ZM302.6 376.44C302.462 375.689 302.279 374.945 302.057 374.227L304.204 373.175C304.467 374.022 304.682 374.899 304.845 375.783L302.6 376.44ZM278.605 372.494L276.569 371.139C276.907 370.335 277.295 369.555 277.722 368.821L279.583 370.529C279.22 371.153 278.892 371.813 278.605 372.494ZM301.268 372.131C300.967 371.46 300.626 370.808 300.251 370.197L302.079 368.432C302.519 369.151 302.921 369.918 303.275 370.708L301.268 372.131ZM280.772 368.76L279.124 366.734C279.628 366.084 280.174 365.474 280.747 364.921L282.151 367.22C281.664 367.691 281.201 368.21 280.772 368.76ZM299.029 368.464C298.59 367.925 298.116 367.423 297.622 366.967L298.98 364.626C299.563 365.161 300.121 365.753 300.638 366.389L299.029 368.464ZM283.688 365.944L282.559 363.418C283.188 362.973 283.848 362.579 284.52 362.251L285.354 364.952C284.782 365.233 284.223 365.565 283.688 365.944ZM296.06 365.741C295.519 365.382 294.953 365.068 294.374 364.808L295.149 362.079C295.83 362.384 296.498 362.755 297.136 363.178L296.06 365.741ZM287.113 364.271L286.593 361.447C287.296 361.242 288.018 361.1 288.737 361.024L288.929 363.912C288.321 363.975 287.71 364.096 287.113 364.271ZM292.599 364.187C291.996 364.031 291.381 363.93 290.772 363.883L290.909 360.99C291.626 361.043 292.35 361.164 293.059 361.344L292.599 364.187Z" fill="#C94F6F"/>
<path d="M226.688 59.2748C226.688 59.2748 233.152 92.9021 232.974 91.5999C232.797 90.2977 238.457 68.868 238.457 68.868L248.758 74.2264L283.97 37.9312L218.591 54.6238L226.688 59.2748Z" fill="#B5C0ED"/>
<path d="M234.269 63.8108L232.881 87.644L237.829 66.5793L248.393 72.5796L281.862 39.3337L234.269 63.8108Z" fill="white"/>
<path d="M232.847 87.9619C232.844 87.9619 232.841 87.9599 232.836 87.9599C232.707 87.9312 232.616 87.7835 232.625 87.6195L234.013 63.7863C234.019 63.6632 234.081 63.5566 234.171 63.5115L281.763 39.0344C281.882 38.9728 282.017 39.0323 282.083 39.1697C282.148 39.3091 282.12 39.4855 282.021 39.586L248.551 72.8319C248.476 72.9057 248.373 72.9221 248.287 72.8729L237.992 67.0243L233.128 87.7343C233.092 87.8881 232.971 87.9845 232.847 87.9619ZM234.513 64.0344L233.312 84.6726L237.583 66.487C237.604 66.3968 237.655 66.323 237.721 66.284C237.788 66.2451 237.867 66.2451 237.933 66.284L248.354 72.2044L280.273 40.4986L234.513 64.0344Z" fill="#6F87DF"/>
<path d="M221.701 55.0873L228.532 58.4771L280.493 40.0372L221.701 55.0873Z" fill="white"/>
<path d="M228.496 58.797C228.477 58.7929 228.455 58.7867 228.438 58.7765L221.609 55.3887C221.503 55.3354 221.437 55.2021 221.447 55.0606C221.457 54.9191 221.54 54.8002 221.651 54.7735L280.441 39.7235C280.576 39.6886 280.708 39.7952 280.741 39.9634C280.774 40.1315 280.694 40.3038 280.562 40.351L228.601 58.7908C228.566 58.799 228.532 58.8031 228.496 58.797ZM222.601 55.1878L228.545 58.1367L273.769 42.0879L222.601 55.1878Z" fill="#6F87DF"/>
<path d="M217.792 111.367C217.792 111.367 223.09 136.342 222.939 135.374C222.789 134.406 226.716 118.273 226.716 118.273L234.486 122.047L260.28 94.1572L211.679 108.071L217.792 111.367Z" fill="#B5C0ED"/>
<path d="M223.519 114.588L222.815 132.421L226.217 116.577L234.19 120.824L258.726 95.2523L223.519 114.588Z" fill="white"/>
<path d="M222.794 132.659C222.79 132.659 222.789 132.659 222.785 132.657C222.689 132.639 222.619 132.53 222.624 132.407L223.328 114.574C223.332 114.482 223.376 114.402 223.442 114.365L258.65 95.0288C258.738 94.9795 258.839 95.0206 258.89 95.1231C258.94 95.2256 258.922 95.3589 258.849 95.4348L234.313 121.007C234.257 121.064 234.181 121.079 234.115 121.044L226.344 116.904L222.999 132.481C222.975 132.6 222.886 132.673 222.794 132.659ZM223.703 114.748L223.094 130.192L226.03 116.514C226.044 116.446 226.082 116.391 226.131 116.36C226.181 116.329 226.238 116.327 226.289 116.354L234.154 120.546L257.554 96.1566L223.703 114.748Z" fill="#6F87DF"/>
<path d="M214.01 108.35L219.158 110.731L257.713 95.808L214.01 108.35Z" fill="white"/>
<path d="M219.137 110.971C219.122 110.969 219.108 110.965 219.093 110.959L213.945 108.578C213.865 108.541 213.815 108.442 213.819 108.336C213.824 108.229 213.885 108.139 213.968 108.116L257.672 95.5742C257.773 95.5455 257.872 95.6214 257.9 95.7465C257.926 95.8716 257.869 96.0008 257.771 96.0397L219.217 110.961C219.189 110.971 219.163 110.973 219.137 110.971ZM214.683 108.405L219.165 110.477L252.721 97.4896L214.683 108.405Z" fill="#6F87DF"/>
<path d="M173.103 363.586C137.076 322.332 113.894 250.416 125.617 189.543C132.356 158.147 150.985 133.256 170.699 113.469C190.636 93.587 213.316 78.8999 236.007 64.785C213.938 80.1283 191.526 95.2973 172.018 115.532C153.013 135.442 134.781 159.74 128.258 190.431C123.439 213.26 124.745 237.62 128.592 260.608C135.113 299.411 150.879 335.481 173.103 363.586Z" fill="#DC6D7E"/>
<path d="M187.164 343.93C139.681 261.679 155.615 169.044 223.738 115.724C216.718 122.258 209.894 129.111 203.59 136.656C184.629 158.779 169.629 187.322 164.696 219.565C157.923 262.663 168.159 307.754 187.164 343.93Z" fill="#DC6D7E"/>
</g>
</svg>
