<svg width="374" height="380" viewBox="0 0 374 380" fill="none" xmlns="http://www.w3.org/2000/svg">
<path d="M59 151.43C68.0742 148.405 87.8921 147.074 94.5708 165.949C101.249 184.823 112.598 186.88 117.438 185.549" stroke="#00FFEA" stroke-width="3" stroke-linecap="round"/>
<path d="M262.626 187.651C271.7 184.626 291.518 183.295 298.197 202.17C304.875 221.044 316.224 223.101 321.064 221.77" stroke="#00FFEA" stroke-width="3" stroke-linecap="round"/>
<g filter="url(#filter0_d_44_8922)">
<path d="M180.573 123.57C183.775 119.609 189.814 119.609 193.016 123.57L199.746 131.895C201.735 134.356 204.988 135.413 208.044 134.592L218.382 131.812C223.301 130.49 228.187 134.039 228.449 139.126L229 149.817C229.163 152.977 231.173 155.745 234.129 156.876L244.126 160.704C248.883 162.525 250.749 168.269 247.971 172.538L242.133 181.511C240.407 184.163 240.407 187.584 242.133 190.237L247.971 199.21C250.749 203.479 248.883 209.222 244.126 211.044L234.129 214.871C231.173 216.003 229.163 218.77 229 221.931L228.449 232.621C228.187 237.708 223.301 241.258 218.382 239.935L208.044 237.156C204.988 236.334 201.735 237.391 199.746 239.852L193.016 248.177C189.814 252.138 183.775 252.138 180.573 248.177L173.843 239.852C171.854 237.391 168.6 236.334 165.544 237.156L155.207 239.935C150.288 241.258 145.402 237.708 145.14 232.621L144.589 221.931C144.426 218.77 142.415 216.003 139.46 214.871L129.463 211.044C124.706 209.222 122.84 203.479 125.618 199.21L131.456 190.237C133.182 187.584 133.182 184.163 131.456 181.511L125.618 172.538C122.84 168.269 124.706 162.525 129.463 160.704L139.46 156.876C142.415 155.745 144.426 152.977 144.589 149.817L145.14 139.126C145.402 134.039 150.288 130.49 155.207 131.812L165.544 134.592C168.6 135.413 171.854 134.356 173.843 131.895L180.573 123.57Z" fill="url(#paint0_linear_44_8922)"/>
</g>
<path d="M204.249 173.874L180.249 197.874L169.34 186.965" stroke="white" stroke-width="5" stroke-linecap="round" stroke-linejoin="round"/>
<path d="M266.499 116.835C266.813 114.925 269.559 114.925 269.874 116.835L270.847 122.742L276.754 123.715C278.663 124.029 278.663 126.775 276.754 127.09L270.847 128.063L269.874 133.97C269.559 135.88 266.813 135.88 266.499 133.97L265.526 128.063L259.618 127.09C257.709 126.775 257.709 124.029 259.618 123.715L265.526 122.742L266.499 116.835Z" fill="white"/>
<path d="M106.335 228.494C106.633 226.68 109.242 226.68 109.541 228.494L110.465 234.106L116.077 235.031C117.891 235.329 117.891 237.938 116.077 238.237L110.465 239.161L109.541 244.773C109.242 246.587 106.633 246.587 106.335 244.773L105.41 239.161L99.7984 238.237C97.9842 237.938 97.9842 235.329 99.7984 235.031L105.41 234.106L106.335 228.494Z" fill="white"/>
<path d="M101.222 121.602C101.442 120.265 103.364 120.265 103.584 121.602L104.265 125.737L108.4 126.418C109.737 126.638 109.737 128.56 108.4 128.781L104.265 129.462L103.584 133.597C103.364 134.934 101.442 134.934 101.222 133.597L100.541 129.462L96.4057 128.781C95.0689 128.56 95.0689 126.638 96.4057 126.418L100.541 125.737L101.222 121.602Z" fill="white"/>
<path d="M276.113 248.136C276.333 246.8 278.255 246.8 278.476 248.136L279.157 252.271L283.292 252.953C284.629 253.173 284.629 255.095 283.292 255.315L279.157 255.996L278.476 260.131C278.255 261.468 276.333 261.468 276.113 260.131L275.432 255.996L271.297 255.315C269.96 255.095 269.96 253.173 271.297 252.953L275.432 252.271L276.113 248.136Z" fill="white"/>
<circle cx="270.621" cy="165.05" r="4" fill="#FFE609"/>
<circle cx="169.34" cy="85" r="4" fill="#FFE609"/>
<circle cx="225.111" cy="292.473" r="4" fill="#FFE609"/>
<circle cx="147.935" cy="268.102" r="2.5" fill="#FFE609"/>
<defs>
<filter id="filter0_d_44_8922" x="0.320068" y="0.599365" width="372.948" height="378.549" filterUnits="userSpaceOnUse" color-interpolation-filters="sRGB">
<feFlood flood-opacity="0" result="BackgroundImageFix"/>
<feColorMatrix in="SourceAlpha" type="matrix" values="0 0 0 0 0 0 0 0 0 0 0 0 0 0 0 0 0 0 127 0" result="hardAlpha"/>
<feOffset dy="4"/>
<feGaussianBlur stdDeviation="62"/>
<feComposite in2="hardAlpha" operator="out"/>
<feColorMatrix type="matrix" values="0 0 0 0 0.435294 0 0 0 0 0.529412 0 0 0 0 0.87451 0 0 0 0.99 0"/>
<feBlend mode="normal" in2="BackgroundImageFix" result="effect1_dropShadow_44_8922"/>
<feBlend mode="normal" in="SourceGraphic" in2="effect1_dropShadow_44_8922" result="shape"/>
</filter>
<linearGradient id="paint0_linear_44_8922" x1="124.32" y1="185.874" x2="249.269" y2="185.874" gradientUnits="userSpaceOnUse">
<stop stop-color="#B5C0ED"/>
<stop offset="1" stop-color="#6F87DF"/>
</linearGradient>
</defs>
</svg>
